Coordinates
version=1
nRows=32
nColumns=12
inDegrees=yes

Units are S.I. units (second, meters, Newtons, ...)
Angles are in degrees

endheader
time	SC_y	SC_z	SC_x	AC_y	AC_z	AC_x	GH_y	GH_z	GH_yy	EL_x	PS_y
       0.0              -42.92          7.011           19.5          53.89         -11.68          5.456         -25.87          34.42          98.89          21.05          119.5
   0.03943              -42.92          7.015          19.49          53.88         -11.67          5.454         -25.87          34.43          98.87          21.05          119.5
   0.07887              -42.91          7.019          19.49          53.88         -11.67          5.452         -25.88          34.44          98.85          21.05          119.5
    0.1183              -42.91          7.023          19.49          53.88         -11.67           5.45         -25.88          34.45          98.83          21.06          119.5
    0.1577              -42.91          7.027          19.48          53.88         -11.67          5.448         -25.88          34.46           98.8          21.06          119.5
    0.1972               -42.9          7.032          19.48          53.88         -11.67          5.445         -25.89          34.47          98.78          21.07          119.5
    0.2366               -42.9          7.037          19.48          53.88         -11.66          5.443         -25.89          34.48          98.75          21.08          119.5
     0.276               -42.9          7.042          19.47          53.87         -11.66           5.44          -25.9          34.49          98.72          21.08          119.5
    0.3155              -42.89          7.048          19.47          53.87         -11.66          5.438          -25.9           34.5          98.69          21.09          119.5
    0.3549              -42.89          7.054          19.46          53.87         -11.65          5.435         -25.91          34.51          98.65           21.1          119.5
    0.3943              -42.89           7.06          19.46          53.87         -11.65          5.431         -25.91          34.53          98.61           21.1          119.5
    0.4338              -42.88          7.067          19.45          53.87         -11.65          5.428         -25.92          34.54          98.57          21.11          119.5
    0.4732              -42.88          7.075          19.45          53.86         -11.64          5.424         -25.93          34.56          98.53          21.12          119.5
    0.5126              -42.87          7.083          19.44          53.86         -11.64           5.42         -25.94          34.58          98.48          21.13          119.5
    0.5521              -42.87          7.092          19.43          53.86         -11.63          5.416         -25.94           34.6          98.43          21.14          119.5
    0.5915              -42.86          7.102          19.43          53.85         -11.63          5.411         -25.95          34.62          98.38          21.16          119.5
    0.6309              -42.85          7.112          19.42          53.85         -11.62          5.406         -25.96          34.64          98.32          21.17          119.5
    0.6704              -42.85          7.123          19.41          53.85         -11.62            5.4         -25.97          34.67          98.26          21.18          119.5
    0.7098              -42.84          7.136           19.4          53.84         -11.61          5.394         -25.98          34.69          98.18           21.2          119.5
    0.7492              -42.83          7.149          19.39          53.84         -11.61          5.387          -26.0          34.72          98.11          21.21          119.5
    0.7887              -42.82          7.164          19.38          53.83          -11.6           5.38         -26.01          34.76          98.02          21.23          119.5
    0.8281              -42.81          7.181          19.36          53.82         -11.59          5.371         -26.03          34.79          97.93          21.25          119.5
    0.8675               -42.8          7.199          19.35          53.82         -11.58          5.362         -26.04          34.83          97.83          21.27          119.5
     0.907              -42.78          7.219          19.33          53.81         -11.57          5.352         -26.06          34.87          97.71           21.3          119.5
    0.9464              -42.77          7.242          19.32           53.8         -11.56          5.341         -26.08          34.92          97.58          21.32          119.5
    0.9858              -42.75          7.267           19.3          53.79         -11.55          5.329         -26.11          34.98          97.44          21.35          119.5
     1.025              -42.74          7.295          19.27          53.78         -11.53          5.315         -26.13          35.04          97.28          21.39          119.5
     1.065              -42.72          7.326          19.25          53.77         -11.51          5.299         -26.16          35.11           97.1          21.43          119.5
     1.104              -42.69          7.362          19.22          53.76          -11.5          5.282          -26.2          35.18           96.9          21.47          119.5
     1.144              -42.67          7.402          19.19          53.75         -11.48          5.262         -26.23          35.27          96.67          21.52          119.5
     1.183              -42.64          7.448          19.15          53.73         -11.45          5.239         -26.28          35.37          96.41          21.57          119.5
     1.222               -42.6          7.501          19.11          53.71         -11.42          5.212         -26.33          35.49          96.11          21.64          119.5
